<svg xmlns="http://www.w3.org/2000/svg" width="120" height="80" viewBox="0 0 120 80">
    <g fill="none" fill-rule="evenodd">
        <rect width="120" height="80" fill="#FFF" rx="4"/>
        <path fill="#191B73" d="M3.993 0A3.993 3.993 0 0 0 0 3.993V14h120V3.993A3.994 3.994 0 0 0 116.007 0H3.993z"/>
        <path fill="#F9B700" d="M0 66v10.007A3.994 3.994 0 0 0 3.993 80h112.014A3.993 3.993 0 0 0 120 76.007V66H0z"/>
        <path fill="#191B73" d="M51.747 51.825h-7.033L49.11 26.15h7.033l-4.396 25.675M39.407 26.15l-6.39 17.659-.755-3.803v.001l-2.255-11.545s-.272-2.312-3.18-2.312h-10.56l-.124.434s3.23.67 7.01 2.936l5.822 22.305h6.982L46.619 26.15h-7.212M83.762 43.925l3.657-9.875 2.057 9.875h-5.714zm14.286 7.9L92.904 26.15h-7.07c-2.386 0-2.966 1.913-2.966 1.913l-9.582 23.762h6.696l1.34-3.813h8.168l.753 3.813h7.805zM74.282 32.559l.908-5.328s-2.805-1.081-5.73-1.081c-3.162 0-10.67 1.401-10.67 8.211 0 6.409 8.812 6.489 8.812 9.853 0 3.365-7.903 2.764-10.511.641l-.948 5.569s2.844 1.401 7.192 1.401c4.347 0 10.907-2.283 10.907-8.492 0-6.45-8.892-7.05-8.892-9.853 0-2.804 6.205-2.444 8.932-.921"/>
        <path fill="#191B73" d="M31.381 39.975l-2.132-11.518s-.257-2.307-3.006-2.307H16.26l-.116.433s4.799 1.048 9.403 4.97c4.4 3.749 5.835 8.422 5.835 8.422"/>
    </g>
</svg>
