<svg xmlns="http://www.w3.org/2000/svg" width="120" height="80" viewBox="0 0 120 80">
    <g fill="none" fill-rule="evenodd">
        <path fill="#E0E0E3" d="M4 0h112a4 4 0 0 1 4 4v72a4 4 0 0 1-4 4H4a4 4 0 0 1-4-4V4a4 4 0 0 1 4-4z"/>
        <path fill="#FFF" d="M94 0h22c2.213 0 4 1.788 4 3.995v72.01A3.993 3.993 0 0 1 116.003 80H27C79 53 88.999 3.864 88.999 3.864 89.582 1.737 91.79 0 93.999 0z" opacity=".2"/>
        <path fill="#A1A1A6" d="M80.18 57.214h-3.083v-8.443l.03-1.387.05-1.517c-.512.512-.868.848-1.068 1.008l-1.677 1.347-1.487-1.856 4.7-3.742h2.536v14.59zm14.242 0h-10.2V55.07l3.663-3.703c1.085-1.111 1.794-1.881 2.126-2.31.333-.43.572-.827.719-1.193.146-.366.22-.745.22-1.138 0-.585-.162-1.02-.485-1.307-.322-.286-.753-.43-1.292-.43-.566 0-1.115.13-1.647.39s-1.088.629-1.667 1.108L84.183 44.5c.718-.612 1.314-1.045 1.786-1.298a6.558 6.558 0 0 1 1.547-.583 7.926 7.926 0 0 1 1.876-.205c.912 0 1.717.166 2.416.5.698.332 1.24.797 1.626 1.396.386.6.58 1.284.58 2.056 0 .672-.119 1.303-.355 1.891-.236.59-.602 1.193-1.098 1.812-.496.619-1.369 1.5-2.62 2.644l-1.876 1.767v.14h6.357v2.594zm11.098-11.327c0 .912-.276 1.687-.828 2.325-.552.64-1.328 1.078-2.326 1.318v.06c1.178.146 2.07.504 2.675 1.073.606.568.908 1.335.908 2.3 0 1.404-.509 2.497-1.527 3.278-1.018.782-2.471 1.173-4.36 1.173-1.584 0-2.988-.263-4.212-.788V54a9.519 9.519 0 0 0 1.866.698c.678.18 1.35.27 2.016.27 1.018 0 1.77-.173 2.255-.519.486-.346.729-.902.729-1.667 0-.685-.28-1.17-.839-1.457-.558-.286-1.45-.429-2.674-.429h-1.108v-2.365h1.128c1.13 0 1.958-.148 2.48-.444.522-.296.783-.804.783-1.522 0-1.105-.692-1.657-2.076-1.657-.479 0-.966.08-1.462.24-.495.16-1.046.435-1.651.828l-1.428-2.126c1.331-.958 2.918-1.437 4.76-1.437 1.511 0 2.704.306 3.579.918.875.612 1.312 1.464 1.312 2.555z"/>
        <path fill="#C6C6CB" d="M0 20h120v14H0z"/>
        <path fill="#FFF" d="M14 42h52v16H14z"/>
    </g>
</svg>
